<svg viewBox="0 0 580 530" xmlns="http://www.w3.org/2000/svg">
    <g>
    <path
       id="path2"
       d="m 474.83307,221.10927 c 0,122.11525 -98.95677,221.10927 -221.02606,221.10927 -122.06795,0 -221.024727,-98.99402 -221.024727,-221.10927 C 32.782283,98.994027 131.73906,0 253.80701,0 375.8763,0 474.83307,98.994027 474.83307,221.10927"
       style="fill:#b3d3ff;fill-opacity:1;fill-rule:nonzero;stroke:none;stroke-width:1.33468" />
    <path
       id="path3"
       d="m 285.71721,302.88495 c 0,0 -61.61112,74.79686 -83.40254,72.84784 -21.79141,-1.94902 -36.7238,-38.40631 -36.7238,-38.40631 0,0 0.74729,-0.40049 2.015,-1.1614 6.37864,-3.76454 25.9949,-16.23291 30.58538,-29.5423 4.44369,-7.22203 36.76384,-59.64525 46.59867,-73.02138 10.58211,-14.37733 23.03244,-14.93801 23.03244,-14.93801 7.01917,11.54727 15.87985,20.33119 26.86229,21.98651 1.50792,0.22695 2.97581,0.37379 4.37697,0.44054 0.66722,4.699 5.08422,28.67457 26.60874,40.94269 0,0 0.82736,-16.70013 11.86318,-18.18192 0,0 11.6897,-6.40773 21.3377,2.96224 0,0 15.29269,-16.41846 0,-62.52739 l -10.91572,-9.87857 -0.0133,-0.0133 -5.00415,-11.90769 c 0,0 55.84634,-2.79003 68.76373,9.18441 12.91739,11.96109 95.54594,121.34631 95.54594,121.34631 l -120.19306,93.35257 c 0,0 -72.8738,-72.30051 -101.33742,-103.48478"
       style="fill:#ffffff;fill-opacity:1;fill-rule:nonzero;stroke:none;stroke-width:1.33468" />
    <path
       id="path4"
       d="m 358.87098,204.28633 c 15.29269,46.10892 0,62.52739 0,62.52739 -9.64666,-9.36997 -21.3377,-2.96224 -21.3377,-2.96224 l 15.58627,-57.16226 -5.16429,-12.28147 z"
       style="fill:#abd6ff;fill-opacity:1;fill-rule:nonzero;stroke:none;stroke-width:1.33468" />
    <path
       id="path5"
       d="m 321.37374,253.18515 16.15874,10.66619 c -11.03449,1.48179 -11.86184,18.18192 -11.86184,18.18192 -21.52453,-12.26812 -25.94286,-36.2437 -26.61008,-40.94269 1.36246,0.0668 2.68356,0.0534 3.9366,-0.0267 z"
       style="fill:#abd6ff;fill-opacity:1;fill-rule:nonzero;stroke:none;stroke-width:1.33468" />
    <path
       id="path6"
       d="m 285.34317,302.28409 c -6.72291,-8.30068 -13.44582,-16.60269 -20.17007,-24.90202 -0.54045,-0.66748 -1.4799,0.28166 -0.94345,0.9438 6.72292,8.30067 13.44716,16.60135 20.17008,24.90203 0.54045,0.66746 1.47988,-0.28168 0.94344,-0.94381"
       style="fill:#2e303d;fill-opacity:1;fill-rule:nonzero;stroke:none;stroke-width:1.33468" />
    <path
       id="path7"
       d="m 279.45161,303.91886 c -4.75995,-2.04379 -9.51856,-4.0876 -14.27851,-6.13139 -0.78064,-0.33507 -1.46121,0.81565 -0.6739,1.15339 4.75995,2.0438 9.5199,4.0876 14.27985,6.13006 0.78065,0.33507 1.45988,-0.81298 0.67256,-1.15206"
       style="fill:#2e303d;fill-opacity:1;fill-rule:nonzero;stroke:none;stroke-width:1.33468" />
    <path
       id="path8"
       d="m 385.69404,341.9933 c -6.05035,-10.01474 -12.10204,-20.02948 -18.15373,-30.04289 -6.02366,-9.96668 -12.04733,-19.9347 -18.07099,-29.90005 -3.41217,-5.64815 -6.82566,-11.29629 -10.23784,-16.94443 -0.44302,-0.73422 -1.59865,-0.0641 -1.15295,0.67415 6.05302,10.01474 12.10471,20.02815 18.1564,30.04288 6.02233,9.96669 12.04466,19.93338 18.06833,29.90005 l 10.23916,16.9431 c 0.44437,0.73556 1.59866,0.0654 1.15162,-0.67281"
       style="fill:#2e303d;fill-opacity:1;fill-rule:nonzero;stroke:none;stroke-width:1.33468" />
    <path
       id="path9"
       d="m 199.16553,301.69604 c -0.0667,1.64198 -0.40033,3.28529 -0.97414,4.92594 -4.59048,13.30938 -24.20675,25.77776 -30.58538,29.54229 l -2.015,-7.3809 c 0,0 -10.34192,2.32146 -17.9082,-4.2331 -0.20016,0.38713 -0.52043,0.73555 -0.89407,0.97584 -1.06755,0.65413 -2.41533,0.65413 -3.66971,0.54733 -5.67137,-0.50728 -11.19595,-2.68457 -15.69303,-6.19547 -2.65553,-2.06917 -5.04418,-4.75106 -5.77812,-8.03502 -0.70726,-3.11042 0.4804,-6.80955 3.24269,-8.33139 -0.10676,-0.49392 -0.17347,-1.00121 -0.20017,-1.50848 -0.1201,-2.89549 1.40117,-5.67351 3.46955,-7.70128 1.90825,-1.89563 4.27021,-3.24526 6.63217,-4.5268 0.0267,-0.12015 0.0533,-0.22694 0.0801,-0.33373 0.57382,-2.05581 2.0417,-3.76454 3.74978,-5.0314 1.54796,-1.14939 3.30942,-1.97705 5.07088,-2.77669 -8.55377,-4.40531 -16.76058,-9.2912 -15.93322,-11.48184 1.66805,-4.44402 19.18925,-2.86879 36.91063,3.33736 17.70802,6.22083 23.4995,15.48667 23.4995,15.48667 5.51123,-2.44294 11.54291,-1.9637 10.99578,12.72067"
       style="fill:#ff9971;fill-opacity:1;fill-rule:nonzero;stroke:none;stroke-width:1.33468" />
    <path
       id="path10"
       d="m 192.67187,304.19653 c -4.12875,1.77281 -8.25885,3.54427 -12.38761,5.31708 l -6.27053,2.69124 c -1.71876,0.73822 -3.80983,1.93967 -5.7381,1.34295 -2.07638,-0.64477 -2.09907,-2.97025 -1.30374,-4.63626 0.79532,-1.66601 2.03902,-3.1865 3.18797,-4.62023 2.27122,-2.83008 4.83602,-5.42254 7.63701,-7.73066 3.24669,-2.67656 6.82432,-4.93661 10.61414,-6.76281 0.77397,-0.37245 0.0974,-1.52451 -0.67389,-1.15206 -7.32475,3.52958 -13.83148,8.73186 -18.85832,15.12891 -1.96163,2.49501 -5.65669,6.89497 -2.71292,10.01874 1.34378,1.42572 3.50291,1.43107 5.24702,0.89041 2.16713,-0.67014 4.25153,-1.74477 6.33193,-2.63785 5.20031,-2.23202 10.40063,-4.46538 15.60094,-6.6974 0.78598,-0.33775 0.10675,-1.48714 -0.6739,-1.15206"
       style="fill:#2e303d;fill-opacity:1;fill-rule:nonzero;stroke:none;stroke-width:1.33468" />
    <path
       id="path11"
       d="m 160.12006,290.86926 c -5.17629,-3.09173 -10.35392,-6.18479 -15.53154,-9.27652 -0.73796,-0.44187 -1.41052,0.71152 -0.6739,1.15205 l 15.53155,9.27653 c 0.73929,0.44186 1.41185,-0.71153 0.67389,-1.15206"
       style="fill:#2e303d;fill-opacity:1;fill-rule:nonzero;stroke:none;stroke-width:1.33468" />
    <path
       id="path12"
       d="m 162.5362,315.87728 c -0.14145,-1.26285 -0.71392,-2.4296 -1.197,-3.58832 -0.53244,-1.27621 -1.06621,-2.55108 -1.59865,-3.82729 -2.45003,-5.8644 -4.9014,-11.73147 -7.35143,-17.59588 -0.32694,-0.78094 -1.61734,-0.43786 -1.28641,0.35376 1.98164,4.74439 3.96329,9.48744 5.94493,14.23049 l 3.00384,7.19267 c 0.6085,1.4551 2.47938,5.28371 -0.22019,5.90179 -1.89224,0.43385 -4.10074,-1.45776 -5.53659,-2.46831 -1.65872,-1.16808 -3.23736,-2.44562 -4.7306,-3.8166 -2.96779,-2.72463 -5.59797,-5.80968 -7.81048,-9.1764 -2.50074,-3.80726 -4.45837,-7.94291 -5.80081,-12.29483 -0.25354,-0.81832 -1.54261,-0.4699 -1.28774,0.3551 2.60083,8.42082 7.46219,16.10074 13.95558,22.05993 1.57598,1.44708 3.24937,2.79404 5.00015,4.02619 1.66138,1.16941 3.65103,2.72862 5.79014,2.69525 2.18047,-0.0347 3.35212,-2.03579 3.12526,-4.04755"
       style="fill:#2e303d;fill-opacity:1;fill-rule:nonzero;stroke:none;stroke-width:1.33468" />
    <path
       id="path13"
       d="m 151.32316,316.57733 c -0.51108,-0.67815 -1.67071,-0.0133 -1.15295,0.67414 0.90342,1.19478 0.99416,2.8234 -0.0654,3.96478 -1.05154,1.1307 -2.61149,1.14138 -3.95528,0.54866 -1.36914,-0.60339 -2.5648,-1.62195 -3.7311,-2.53906 -1.21567,-0.95448 -2.41,-1.93967 -3.5803,-2.94889 -4.64652,-4.01016 -8.91807,-8.4395 -12.77326,-13.2146 -0.54045,-0.66746 -1.4799,0.28168 -0.94346,0.94381 3.54161,4.38662 7.43417,8.48223 11.64701,12.22941 2.0537,1.82353 4.17812,3.57632 6.37729,5.22096 1.93093,1.44708 4.45703,2.82608 6.83233,1.52718 2.30725,-1.26152 2.91976,-4.32121 1.34511,-6.40639"
       style="fill:#2e303d;fill-opacity:1;fill-rule:nonzero;stroke:none;stroke-width:1.33468" />
    <path
       id="path14"
       d="m 353.12008,206.68895 -15.5876,57.16226 -16.15874,-10.66619 c 16.62713,-23.62849 13.38444,-51.689 13.38444,-51.689 0,0 -2.58882,37.79224 -31.76102,39.56771 -1.25304,0.0801 -2.57414,0.0934 -3.93527,0.0267 -1.40249,-0.0668 -2.86905,-0.21359 -4.37696,-0.44054 -10.98378,-1.65532 -19.84313,-10.43925 -26.86229,-21.98651 -13.94491,-22.93432 -20.68383,-56.70838 -22.51335,-67.08088 16.4283,-2.14925 32.38687,-9.05092 47.97314,-15.27175 4.81867,-1.92232 9.90288,-3.83129 15.06584,-3.25726 5.28438,0.57403 10.02298,3.7245 13.57259,7.68928 3.10791,3.4842 5.42984,7.56912 7.61965,11.6941 0.61385,-3.76454 3.1613,-15.05816 11.70305,-11.8009 0.98748,0.37378 1.86821,0.9745 2.62751,1.73542 7.08722,7.1553 4.48506,29.36874 -3.54961,33.8942 l 2.61684,6.22084 5.00415,11.90769 0.0133,0.0133 z"
       style="fill:#ff9971;fill-opacity:1;fill-rule:nonzero;stroke:none;stroke-width:1.33468" />
    <path
       id="path15"
       d="m 334.75724,201.49589 c 0,0 3.24403,28.06051 -13.3831,51.689 L 302.99756,241.0636 c 29.1722,-1.77547 31.75968,-39.56771 31.75968,-39.56771"
       style="fill:#2e303d;fill-opacity:1;fill-rule:nonzero;stroke:none;stroke-width:1.33468" />
    <path
       id="path16"
       d="m 314.10076,89.440778 c -6.37862,-2.296099 -13.53123,-0.800966 -19.74972,1.895616 -6.21849,2.683235 -11.9032,6.501179 -18.14839,9.104316 -11.40946,4.7257 -24.54036,5.13953 -36.20338,1.12135 -4.32358,-1.49514 -9.0475,-3.57765 -13.25099,-1.788823 -3.2587,1.387003 -5.07087,4.805793 -5.41916,8.394123 0,-0.80497 0.04,-1.60861 0.17348,-2.40423 0.36163,-2.13725 1.30241,-4.17571 3.00649,-5.56538 1.84553,-1.505817 4.31959,-2.023772 6.65085,-2.009094 2.75028,0.01732 5.4245,0.794298 8.05602,1.519172 2.56213,0.704852 5.1376,1.290882 7.77446,1.643312 10.23115,1.36832 20.82127,-0.37378 30.05827,-4.992691 9.46918,-4.733708 18.12971,-12.663269 29.22692,-13.017026 4.96278,-0.157519 9.74141,1.572567 13.20562,5.176913 3.49757,3.636384 5.12292,8.754556 4.44502,13.751244 -0.0227,0.17355 -0.0721,0.34041 -0.10142,0.51261 0.24821,-5.69352 -4.19148,-11.333661 -9.72407,-13.341412 m 28.32884,32.746152 c -0.78598,-5.01939 -2.01367,-10.23901 -5.36311,-14.05695 -3.00116,-3.40678 -8.18813,-5.21963 -12.25817,-3.54161 1.16629,-4.4814 0.60183,-9.38197 -1.69874,-13.42952 -2.37264,-4.175705 -6.44802,-7.327506 -11.09588,-8.538296 -11.31606,-2.947554 -21.64996,4.501428 -30.83759,9.937313 -4.91074,2.907505 -10.03633,5.234311 -15.60628,6.5519 -5.42717,1.284213 -11.05851,1.664673 -16.60978,1.133363 -2.82234,-0.26832 -5.60332,-0.802294 -8.34026,-1.536509 -2.7316,-0.732884 -5.45653,-1.579245 -8.29088,-1.803515 -4.70924,-0.371107 -9.50655,1.413705 -11.40146,6.017924 -1.76547,4.28917 -0.85804,9.29521 0.85938,13.44288 1.20767,2.91552 2.91709,5.60542 5.02017,7.94558 -5.13093,-0.53398 -10.55276,2.09052 -13.12289,6.59461 -2.90908,5.09949 -1.88156,12.12129 2.36196,16.17951 3.66971,3.51091 8.98078,4.63226 14.03832,5.00604 5.12425,0.38714 10.19512,0.16019 15.22596,-0.50727 16.42696,-2.14926 32.38688,-9.05092 47.97181,-15.27176 4.81867,-1.92232 9.90288,-3.83128 15.06717,-3.25726 5.28304,0.57403 10.02165,3.7245 13.57126,7.68928 3.10924,3.4842 5.43117,7.56912 7.61965,11.6941 0.61384,-3.76454 3.16263,-15.05816 11.70304,-11.8009 0.98749,0.37379 1.86822,0.97451 2.62886,1.73543 0.0934,-6.74147 -0.387,-13.50963 -1.44254,-20.18434"
       style="fill:#2e303d;fill-opacity:1;fill-rule:nonzero;stroke:none;stroke-width:1.33468" />
    <path
       id="path17"
       d="m 314.35351,201.95017 c 0,0 7.42083,13.56302 -3.89656,21.43918 -11.31472,7.88951 -19.29601,-3.31065 -19.29601,-3.31065 z"
       style="fill:#ffffff;fill-opacity:1;fill-rule:nonzero;stroke:none;stroke-width:1.33468" />
    <path
       id="path18"
       d="m 275.77536,177.37361 15.38611,30.62359 c 0,0 -12.51706,7.0485 -15.38611,2.96357 -2.88239,-4.08492 0,-33.58716 0,-33.58716"
       style="fill:#f9785a;fill-opacity:1;fill-rule:nonzero;stroke:none;stroke-width:1.33468" />
    <path
       id="path19"
       d="m 270.11106,184.28754 c 1.18098,3.99682 -0.11209,7.90153 -2.88773,8.72252 -2.77563,0.81966 -5.98229,-1.75545 -7.16194,-5.75227 -1.18098,-3.99682 0.11209,-7.90152 2.88773,-8.72118 2.7743,-0.82099 5.9823,1.75411 7.16194,5.75093"
       style="fill:#2e303d;fill-opacity:1;fill-rule:nonzero;stroke:none;stroke-width:1.33468" />
    <path
       id="path20"
       d="m 302.5808,173.33033 c 1.18098,3.99682 -0.11209,7.90153 -2.88772,8.72252 -2.77431,0.81966 -5.98097,-1.75545 -7.16195,-5.75227 -1.18098,-3.99682 0.11343,-7.90153 2.88773,-8.72118 2.77564,-0.82099 5.9823,1.75411 7.16194,5.75093"
       style="fill:#2e303d;fill-opacity:1;fill-rule:nonzero;stroke:none;stroke-width:1.33468" />
    <path
       id="path21"
       d="m 263.36333,168.11577 c -2.52876,0.6034 -4.97078,1.59125 -7.24201,2.85144 -1.22234,0.67949 -1.64402,2.52972 -0.85671,3.67911 0.85005,1.24149 2.36731,1.58324 3.67639,0.85703 0.5618,-0.31238 1.14228,-0.59138 1.72543,-0.86238 1.36246,-0.58203 2.7663,-1.05994 4.20883,-1.40435 1.36113,-0.32439 2.25654,-2.00242 1.80416,-3.316 -0.49241,-1.42972 -1.85888,-2.15194 -3.31609,-1.80485"
       style="fill:#2e303d;fill-opacity:1;fill-rule:nonzero;stroke:none;stroke-width:1.33468" />
    <path
       id="path22"
       d="m 301.39489,159.13749 c -0.55913,-0.48191 -1.14628,-0.65412 -1.87622,-0.72488 -3.23202,-0.31104 -6.60415,0.18956 -9.60931,1.41904 -0.67522,0.27634 -1.22768,0.62209 -1.58798,1.28422 -0.3136,0.5767 -0.43236,1.40302 -0.21485,2.03312 0.43236,1.25485 1.93093,2.36952 3.31475,1.80351 1.2437,-0.50861 2.53411,-0.86371 3.85387,-1.10133 1.43986,-0.1909 2.89173,-0.23762 4.3396,-0.0974 0.6432,0.0614 1.47456,-0.39114 1.89624,-0.84101 0.43903,-0.46857 0.76597,-1.22682 0.7246,-1.87827 -0.044,-0.69951 -0.29358,-1.42571 -0.8407,-1.89695"
       style="fill:#2e303d;fill-opacity:1;fill-rule:nonzero;stroke:none;stroke-width:1.33468" />
    <path
       id="path23"
       d="m 324.44922,82.133837 c -0.33894,-0.786278 -1.48924,-0.10813 -1.15162,0.674143 2.47939,5.74693 3.70841,11.971776 3.64436,18.22732 -0.008,0.85969 1.32643,0.85969 1.33443,0 0.0668,-6.505185 -1.25036,-12.930263 -3.82717,-18.901463"
       style="fill:#2e303d;fill-opacity:1;fill-rule:nonzero;stroke:none;stroke-width:1.33468" />
    <path
       id="path24"
       d="m 330.56096,93.645718 -1.70808,7.041822 c -0.20284,0.83434 1.08356,1.19077 1.2864,0.3551 l 1.70809,-7.041824 c 0.20149,-0.834346 -1.0849,-1.190775 -1.28641,-0.355098"
       style="fill:#2e303d;fill-opacity:1;fill-rule:nonzero;stroke:none;stroke-width:1.33468" />
    <path
       id="path25"
       d="m 321.49103,489.01178 v 8.53161 H 202.43225 l -90.75397,-49.35417 v -7.67592 l 92.49007,48.49848 z"
       style="fill:#8e8e8e;fill-opacity:1;fill-rule:nonzero;stroke:none;stroke-width:1.33468" />
    <path
       id="path26"
       d="M 321.49103,489.01178 H 204.16835 L 111.67828,440.5133 h 117.32268 z"
       style="fill:#b7b7b7;fill-opacity:1;fill-rule:nonzero;stroke:none;stroke-width:1.33468" />
    <path
       id="path27"
       d="m 216.58425,485.28328 h -14.44799 l -11.38945,-5.97387 h 14.44798 z"
       style="fill:#8e8e8e;fill-opacity:1;fill-rule:nonzero;stroke:none;stroke-width:1.33468" />
    <path
       id="path28"
       d="m 201.31638,477.30233 h -14.44799 l -11.38945,-5.97253 h 14.44799 z"
       style="fill:#8e8e8e;fill-opacity:1;fill-rule:nonzero;stroke:none;stroke-width:1.33468" />
    <path
       id="path29"
       d="m 188.39753,469.63561 h -14.44799 l -11.38945,-5.97253 h 14.44799 z"
       style="fill:#8e8e8e;fill-opacity:1;fill-rule:nonzero;stroke:none;stroke-width:1.33468" />
    <path
       id="path30"
       d="M 173.12899,461.65586 H 158.681 l -11.38945,-5.97253 h 14.44799 z"
       style="fill:#8e8e8e;fill-opacity:1;fill-rule:nonzero;stroke:none;stroke-width:1.33468" />
    <path
       id="path31"
       d="m 234.02125,484.12308 h -14.44798 l -11.38946,-5.97253 h 14.44799 z"
       style="fill:#8e8e8e;fill-opacity:1;fill-rule:nonzero;stroke:none;stroke-width:1.33468" />
    <path
       id="path32"
       d="m 221.10239,476.45504 h -14.44798 l -11.38945,-5.97254 h 14.44798 z"
       style="fill:#8e8e8e;fill-opacity:1;fill-rule:nonzero;stroke:none;stroke-width:1.33468" />
    <path
       id="path33"
       d="m 205.83453,468.47528 h -14.44799 l -11.38945,-5.97253 h 14.44665 z"
       style="fill:#8e8e8e;fill-opacity:1;fill-rule:nonzero;stroke:none;stroke-width:1.33468" />
    <path
       id="path34"
       d="m 237.17427,475.03265 h -14.44799 l -11.38945,-5.97253 h 14.44799 z"
       style="fill:#8e8e8e;fill-opacity:1;fill-rule:nonzero;stroke:none;stroke-width:1.33468" />
    <path
       id="path35"
       d="m 224.25541,467.36595 h -14.44799 l -11.38945,-5.97388 h 14.44799 z"
       style="fill:#8e8e8e;fill-opacity:1;fill-rule:nonzero;stroke:none;stroke-width:1.33468" />
    <path
       id="path36"
       d="m 208.98754,459.38485 h -14.44799 l -11.38945,-5.97253 h 14.44799 z"
       style="fill:#8e8e8e;fill-opacity:1;fill-rule:nonzero;stroke:none;stroke-width:1.33468" />
    <path
       id="path37"
       d="M 290.39549,486.00428 H 275.9475 l -11.38945,-5.97253 h 14.44799 z"
       style="fill:#8e8e8e;fill-opacity:1;fill-rule:nonzero;stroke:none;stroke-width:1.33468" />
    <path
       id="path38"
       d="M 275.12762,478.02453 H 260.67963 L 249.29018,472.052 h 14.44666 z"
       style="fill:#8e8e8e;fill-opacity:1;fill-rule:nonzero;stroke:none;stroke-width:1.33468" />
    <path
       id="path39"
       d="m 262.20877,470.35781 h -14.44799 l -11.38945,-5.97387 h 14.44666 z"
       style="fill:#8e8e8e;fill-opacity:1;fill-rule:nonzero;stroke:none;stroke-width:1.33468" />
    <path
       id="path40"
       d="m 246.94023,462.37686 h -14.44798 l -11.38946,-5.97253 h 14.44799 z"
       style="fill:#8e8e8e;fill-opacity:1;fill-rule:nonzero;stroke:none;stroke-width:1.33468" />
    <path
       id="path41"
       d="m 307.8325,484.84395 h -14.44799 l -11.38945,-5.97253 h 14.44799 z"
       style="fill:#8e8e8e;fill-opacity:1;fill-rule:nonzero;stroke:none;stroke-width:1.33468" />
    <path
       id="path42"
       d="m 294.91298,477.17724 h -14.44799 l -11.38945,-5.97253 h 14.44799 z"
       style="fill:#8e8e8e;fill-opacity:1;fill-rule:nonzero;stroke:none;stroke-width:1.33468" />
    <path
       id="path43"
       d="m 279.64511,469.19748 h -14.44799 l -11.38945,-5.97387 h 14.44799 z"
       style="fill:#8e8e8e;fill-opacity:1;fill-rule:nonzero;stroke:none;stroke-width:1.33468" />
    <path
       id="path44"
       d="M 396.44643,530 H 279.12242 l -59.90438,-31.47528 h 117.32402 z"
       style="fill:#d5e0e0;fill-opacity:1;fill-rule:nonzero;stroke:none;stroke-width:1.33468" />
    <path
       id="path45"
       d="m 315.07811,526.22197 h -34.14433 l -17.43447,-9.16037 h 34.14568 z"
       style="fill:#6196f5;fill-opacity:1;fill-rule:nonzero;stroke:none;stroke-width:1.33468" />
    <path
       id="path46"
       d="m 325.73936,525.64448 c -0.20817,0 -0.42035,-0.0481 -0.61917,-0.15219 l -40.48827,-21.27232 c -0.65254,-0.34441 -0.90475,-1.14938 -0.5618,-1.8035 0.34429,-0.65412 1.15029,-0.90109 1.80283,-0.56201 l 40.48827,21.27231 c 0.65254,0.34442 0.90475,1.15206 0.56179,1.80352 -0.2402,0.45655 -0.70458,0.71419 -1.18365,0.71419"
       style="fill:#b7b7b7;fill-opacity:1;fill-rule:nonzero;stroke:none;stroke-width:1.33468" />
    <path
       id="path47"
       d="m 339.35999,524.861 c -0.20817,0 -0.42035,-0.0494 -0.61917,-0.15218 l -40.48827,-21.27365 c -0.65254,-0.34309 -0.90342,-1.14939 -0.56179,-1.80217 0.34428,-0.65412 1.15028,-0.90109 1.80282,-0.56201 l 40.48827,21.27231 c 0.65254,0.34308 0.90475,1.15073 0.56179,1.80351 -0.2402,0.45521 -0.70458,0.71419 -1.18365,0.71419"
       style="fill:#b7b7b7;fill-opacity:1;fill-rule:nonzero;stroke:none;stroke-width:1.33468" />
    <path
       id="path48"
       d="m 357.87923,526.03695 c -0.20817,0 -0.42035,-0.0494 -0.61918,-0.15218 l -40.48826,-21.27365 c -0.65254,-0.34309 -0.90342,-1.14939 -0.5618,-1.80218 0.34429,-0.65412 1.15029,-0.90108 1.80283,-0.562 l 40.48826,21.27231 c 0.65255,0.34308 0.90475,1.15072 0.5618,1.80351 -0.2402,0.45521 -0.70458,0.71419 -1.18365,0.71419"
       style="fill:#b7b7b7;fill-opacity:1;fill-rule:nonzero;stroke:none;stroke-width:1.33468" />
    <path
       id="path49"
       d="m 371.49999,525.25335 c -0.20817,0 -0.42035,-0.0494 -0.61917,-0.15219 l -40.48827,-21.27365 c -0.65254,-0.34308 -0.90342,-1.14938 -0.5618,-1.80217 0.34429,-0.65546 1.15029,-0.90109 1.80283,-0.56201 l 40.48827,21.27231 c 0.65254,0.34308 0.90475,1.15073 0.56179,1.80352 -0.2402,0.4552 -0.70458,0.71419 -1.18365,0.71419"
       style="fill:#b7b7b7;fill-opacity:1;fill-rule:nonzero;stroke:none;stroke-width:1.33468" />
    <path
       id="path50"
       d="m 493.82937,171.07374 22.83361,-11.89301 c 9.10622,2.38688 18.99442,2.25339 28.60374,-0.92244 26.53001,-8.76791 40.93129,-37.39175 32.16535,-63.931751 -8.76461,-26.540002 -37.37502,-40.946713 -63.90502,-32.177469 -26.51534,8.763897 -40.91662,37.38641 -32.15202,63.92641 2.5341,7.67593 6.7416,14.34797 12.07136,19.72779 z"
       style="fill:#b3d3ff;fill-opacity:1;fill-rule:nonzero;stroke:none;stroke-width:1.33468" />
    <path
       id="path51"
       d="m 543.65978,145.32523 v 3.31333 h -2.85703 -19.28 -2.96646 v -9.47142 z"
       style="fill:#8e8e8e;fill-opacity:1;fill-rule:nonzero;stroke:none;stroke-width:1.33468" />
    <path
       id="path52"
       d="m 521.52287,148.63843 h 19.28 c 0,0 -0.45638,3.99014 -9.70138,3.99014 -9.23299,0 -9.57862,-3.99014 -9.57862,-3.99014"
       style="fill:#b7b7b7;fill-opacity:1;fill-rule:nonzero;stroke:none;stroke-width:1.33468" />
    <path
       id="path53"
       d="m 543.65978,136.30982 v 9.01487 l -25.10349,-6.15675 v -2.85812 h 1.79749 22.07432 z"
       style="fill:#b7b7b7;fill-opacity:1;fill-rule:nonzero;stroke:none;stroke-width:1.33468" />
    <path
       id="path54"
       d="m 560.99443,96.590069 c 0,10.911821 -5.89823,20.456661 -14.68819,25.592191 l -3.87788,14.1277 h -22.07432 l -3.8672,-14.1277 c -8.78864,-5.13553 -14.69887,-14.68037 -14.69887,-25.592191 0,-16.355722 13.259,-29.609033 29.60857,-29.609033 16.34956,0 29.59789,13.253311 29.59789,29.609033"
       style="fill:#53a1ff;fill-opacity:1;fill-rule:nonzero;stroke:none;stroke-width:1.33468" />
    <path
       id="path55"
       d="m 519.50947,103.45768 c -0.11075,-0.70618 -1.18498,-0.40716 -1.07555,0.29636 1.65604,10.61146 3.30941,21.22426 4.96278,31.83571 0.10943,0.70619 1.18365,0.40583 1.07423,-0.29635 z"
       style="fill:#ffffff;fill-opacity:1;fill-rule:nonzero;stroke:none;stroke-width:1.33468" />
    <path
       id="path56"
       d="m 542.98602,102.37958 c -1.78414,11.1708 -3.56962,22.34161 -5.3551,33.51374 -0.11209,0.70084 0.96213,1.00388 1.07555,0.29636 1.78548,-11.17213 3.56964,-22.34294 5.35512,-33.51374 0.11209,-0.70218 -0.96213,-1.00388 -1.07557,-0.29636"
       style="fill:#ffffff;fill-opacity:1;fill-rule:nonzero;stroke:none;stroke-width:1.33468" />
    <path
       id="path57"
       d="m 534.71476,108.83203 c -1.201,-2.66054 -1.59198,-5.86574 -0.87673,-8.71318 0.16148,-0.646106 0.46039,-1.412359 1.16364,-1.625957 0.68324,-0.20691 1.14362,0.375122 1.39048,0.93713 0.50709,1.149387 0.4764,2.603137 0.37899,3.831287 -0.16147,2.03445 -0.84738,4.04355 -1.96163,5.76295 -0.0293,-0.0641 -0.0668,-0.12815 -0.0948,-0.19223 m -9.70271,-6.72144 c 0.10275,-0.71152 0.2402,-1.56588 0.80333,-2.07049 0.68056,-0.61274 1.4492,-0.213599 1.74679,0.54732 0.27488,0.70352 0.16546,1.55521 0.14277,2.29343 -0.024,0.78362 -0.056,1.56856 -0.13076,2.35084 -0.14279,1.47377 -0.53379,3.12376 -1.30509,4.47606 -1.17164,-2.3228 -1.62802,-5.02339 -1.25704,-7.59716 m 20.98808,8.33939 c -0.8367,2.30811 -3.42551,3.87 -5.86353,3.40277 -2.05905,-0.39514 -3.63101,-1.92366 -4.70524,-3.68178 1.00483,-1.44707 1.71476,-3.12643 2.0964,-4.68297 0.40434,-1.64198 0.50575,-3.35605 0.2709,-5.0314 -0.18015,-1.276208 -0.77932,-2.906173 -2.25121,-3.103742 -1.72009,-0.23228 -2.60349,1.50047 -2.88239,2.919522 -0.3603,1.83154 -0.35763,3.71781 -0.0307,5.5547 0.25087,1.41103 0.73127,2.87146 1.43185,4.21308 -0.14678,0.18154 -0.2909,0.36309 -0.44837,0.5353 -0.95545,1.04393 -2.16713,2.0131 -3.63768,2.09453 -1.40784,0.0761 -2.38732,-0.80097 -3.10524,-1.89028 0.74461,-1.07196 1.25971,-2.33615 1.52793,-3.595 0.39099,-1.85157 0.55512,-3.91138 0.42836,-5.80033 -0.0974,-1.467099 -1.11427,-3.193181 -2.83569,-2.697914 -1.76947,0.508614 -2.06572,2.664544 -2.18181,4.217084 -0.13345,1.77414 0.0881,3.59099 0.63119,5.28503 0.27089,0.8477 0.62719,1.7381 1.08623,2.56309 -0.72193,0.83568 -1.66138,1.44975 -2.87572,1.65133 -3.35478,0.55801 -4.61716,-2.87546 -5.26837,-5.48395 -0.17481,-0.6955 -1.25036,-0.40048 -1.07556,0.29636 0.7246,2.89416 2.13377,6.37168 5.66337,6.35834 1.70141,-0.008 3.09056,-0.75424 4.15412,-1.87426 0.27088,0.36711 0.56713,0.71018 0.8994,1.00521 1.28507,1.14538 3.01985,1.35096 4.59982,0.71286 1.17832,-0.47658 2.20317,-1.29489 3.06521,-2.29477 1.02886,1.56456 2.41268,2.85678 4.17013,3.52292 3.28939,1.24683 7.0325,-0.64612 8.21082,-3.89937 0.2442,-0.67549 -0.83136,-0.96784 -1.07423,-0.29636"
       style="fill:#ffffff;fill-opacity:1;fill-rule:nonzero;stroke:none;stroke-width:1.33468" />
    <path
       id="path58"
       d="m 208.25961,178.5561 -23.75437,3.68444 c -5.53126,6.83357 -13.0455,12.20405 -22.03162,15.13158 -24.80859,8.08041 -51.46671,-5.48662 -59.54541,-30.30454 -8.077368,-24.81793 5.48455,-51.48741 30.29313,-59.56782 24.79525,-8.076405 51.45337,5.49062 59.53074,30.30854 2.3366,7.17932 2.86103,14.52551 1.82551,21.52195 z"
       style="fill:#ffffff;fill-opacity:1;fill-rule:nonzero;stroke:none;stroke-width:1.33468" />
    <path
       id="path59"
       d="m 185.38396,137.27325 -44.23271,44.24936 -24.04795,-24.07036 11.65901,-11.66473 12.38894,12.39361 32.55902,-32.57127 z"
       style="fill:#5886ff;fill-opacity:1;fill-rule:nonzero;stroke:none;stroke-width:1.33468" />
    <path
       id="path60"
       d="m 461.94317,283.74428 -30.13167,33.82746 -7.69972,20.78506 -1.57464,-19.49017 -3.16262,-23.74864 0.32026,-4.3933 1.8015,-24.81525 c -5.00416,0.46723 -9.87487,0.33373 -14.45333,-0.49393 -18.01495,-3.20387 -31.75835,-16.96712 -33.47978,-46.7497 -1.05554,-18.14188 1.18765,-31.81169 4.21683,-41.66357 4.44369,-14.47078 10.62215,-20.67827 10.62215,-20.67827 0,0 22.5387,37.76554 52.40348,41.94391 0,0 5.47121,-12.90889 13.99828,-9.10431 8.54042,3.80459 8.54042,29.48889 -4.99081,32.85295 -1.7748,17.76808 0.81402,35.97671 7.48621,52.54335 1.27974,3.16382 2.7623,6.34098 4.64386,9.18441"
       style="fill:#ff9971;fill-opacity:1;fill-rule:nonzero;stroke:none;stroke-width:1.33468" />
    <path
       id="path61"
       d="m 432.47886,209.02764 c 6.6722,0 12.07669,5.40652 12.07669,12.08124 0,6.67471 -5.40449,12.08123 -12.07669,12.08123 -6.6722,0 -12.07668,-5.40652 -12.07668,-12.08123 0,-6.67472 5.40448,-12.08124 12.07668,-12.08124"
       style="fill:#f9785a;fill-opacity:1;fill-rule:nonzero;stroke:none;stroke-width:1.33468" />
    <path
       id="path62"
       d="m 436.53569,262.93317 -15.98659,15.96592 0.94746,-12.99033 c 4.91073,-0.44053 9.96827,-1.4671 15.03913,-2.97559"
       style="fill:#2e303d;fill-opacity:1;fill-rule:nonzero;stroke:none;stroke-width:1.33468" />
    <path
       id="path63"
       d="m 420.54843,278.89909 -0.85404,11.82626 c 0,0 -17.3197,7.7707 -25.25963,26.12618 -1.72143,-5.58007 -1.53593,-11.68076 -0.29357,-17.40766 1.40116,-6.40773 4.04202,-12.45502 6.7109,-18.42222 2.28189,-5.11283 4.60382,-10.25236 6.19313,-15.60681 4.57714,0.82899 9.44784,0.96249 14.452,0.49526 z"
       style="fill:#2e303d;fill-opacity:1;fill-rule:nonzero;stroke:none;stroke-width:1.33468" />
    <path
       id="path64"
       d="m 391.92574,204.00865 6.87104,28.95492 c 0,0 -11.9686,3.61769 -13.54324,0.73421 -1.57598,-2.87012 6.6722,-29.68913 6.6722,-29.68913"
       style="fill:#f9785a;fill-opacity:1;fill-rule:nonzero;stroke:none;stroke-width:1.33468" />
    <path
       id="path65"
       d="m 560.28944,317.31261 c -1.29841,-19.33932 -10.6515,-37.38775 -21.44179,-53.57926 -7.35143,-11.01596 -15.4795,-21.57402 -22.71084,-32.64871 5.14426,5.09148 10.36994,10.10686 15.38343,15.3118 10.59679,10.99726 20.62912,23.27606 25.73202,37.87901 3.68839,10.56073 4.60115,21.98116 3.03718,33.03716 M 413.78655,187.39062 c -3.75378,-2.73663 -7.17395,-5.90712 -10.40997,-9.23113 -3.1693,-3.25459 -6.28388,-6.62799 -8.88737,-10.36049 -1.9603,-2.81272 -3.61233,-5.87375 -4.60115,-9.1457 4.60382,6.97375 19.58425,27.78017 39.36866,36.29176 -5.56461,-1.42705 -10.81564,-4.16101 -15.47017,-7.55444 m 146.56561,102.65979 c -3.57897,-14.64032 -12.26484,-27.3076 -22.15971,-38.42767 -8.00932,-9.00152 -16.91003,-17.14334 -25.35304,-25.72702 -2.64353,-4.30919 -5.11892,-8.71585 -7.32608,-13.27735 -8.27353,-17.07258 -12.61046,-35.85656 -21.1242,-52.79699 -8.5284,-16.95377 -22.82026,-32.7328 -41.55581,-35.65632 -27.51616,-4.29852 -53.77662,20.10557 -81.146,14.9647 -1.08223,13.92479 4.65586,28.23405 15.06584,37.55195 l 1.02618,0.32172 c 3.81383,-12.4163 8.89138,-18.73325 10.26051,-20.28179 1.64537,8.19789 7.33676,14.94069 12.96809,20.89587 6.58281,6.9644 13.99562,13.43753 22.99643,17.0312 3.88455,1.54986 8.01331,2.50969 12.18744,2.68057 1.51859,0.39113 3.0532,0.72087 4.6145,0.93846 0,0 5.4712,-12.9089 13.99827,-9.10431 8.54042,3.80459 8.54042,29.48889 -4.99081,32.85295 -1.7748,17.76809 0.81268,35.97671 7.48488,52.54468 1.28107,3.16382 2.76363,6.34098 4.64519,9.18308 1.16096,1.77681 2.48073,3.41745 4.01667,4.85919 v 0.0133 c 0.54711,0.50862 1.11959,1.00121 1.73344,1.46843 11.72973,8.95747 29.01207,3.59233 42.82353,8.78527 12.78261,4.80446 20.71052,18.26068 22.79091,31.7703 2.0964,13.50962 -0.62586,27.24753 -3.32142,40.65035 l 0.2402,0.0788 c 0.26689,-0.79963 0.5191,-1.61527 0.77397,-2.41491 17.92687,-6.34898 28.54903,-25.7951 29.40039,-44.92484 2.57949,-11.13342 2.66489,-22.8689 -0.0493,-33.97963"
       style="fill:#2e303d;fill-opacity:1;fill-rule:nonzero;stroke:none;stroke-width:1.33468" />
    <path
       id="path66"
       d="m 386.89156,204.2615 c 0,4.16769 -2.34728,7.54509 -5.24035,7.54509 -2.8944,0 -5.24035,-3.3774 -5.24035,-7.54509 0,-4.1677 2.34595,-7.54643 5.24035,-7.54643 2.89307,0 5.24035,3.37873 5.24035,7.54643"
       style="fill:#2e303d;fill-opacity:1;fill-rule:nonzero;stroke:none;stroke-width:1.33468" />
    <path
       id="path67"
       d="m 414.04824,203.17885 c 0,4.1677 -2.34595,7.5451 -5.23901,7.5451 -2.8944,0 -5.24035,-3.3774 -5.24035,-7.5451 0,-4.16769 2.34595,-7.5451 5.24035,-7.5451 2.89306,0 5.23901,3.37741 5.23901,7.5451"
       style="fill:#2e303d;fill-opacity:1;fill-rule:nonzero;stroke:none;stroke-width:1.33468" />
    <path
       id="path68"
       d="m 385.00066,186.84009 c -2.59548,-0.13884 -5.21766,0.11614 -7.75443,0.68215 -1.36379,0.30304 -2.29123,1.95971 -1.86288,3.28396 0.46439,1.4324 1.82151,2.19064 3.28273,1.86492 0.62852,-0.14017 1.26237,-0.24429 1.90024,-0.33908 1.47055,-0.17221 2.95311,-0.23094 4.43434,-0.15218 1.39583,0.0734 2.73027,-1.28155 2.66889,-2.66988 -0.0681,-1.50982 -1.17298,-2.58979 -2.66889,-2.66989"
       style="fill:#2e303d;fill-opacity:1;fill-rule:nonzero;stroke:none;stroke-width:1.33468" />
    <path
       id="path69"
       d="m 416.93089,189.2311 c -0.40034,-0.62075 -0.91542,-0.95181 -1.59466,-1.22681 -3.01049,-1.21613 -6.38663,-1.69003 -9.61598,-1.36298 -0.72593,0.0734 -1.35445,0.24964 -1.88689,0.78228 -0.46439,0.46322 -0.81268,1.22281 -0.78199,1.88761 0.0587,1.3256 1.17965,2.82073 2.66888,2.66989 1.33578,-0.13483 2.67422,-0.10947 4.00733,0.036 1.43586,0.22427 2.83836,0.59138 4.18881,1.13603 0.59916,0.24163 1.52526,0.0427 2.05637,-0.26965 0.55379,-0.32306 1.08223,-0.95849 1.22635,-1.59526 0.15613,-0.68349 0.12277,-1.44974 -0.26822,-2.05715"
       style="fill:#2e303d;fill-opacity:1;fill-rule:nonzero;stroke:none;stroke-width:1.33468" />
    <path
       id="path70"
       d="m 418.95471,242.76245 c 1.9336,4.7831 0.11476,10.03077 -4.06338,11.72214 -4.17946,1.69271 -9.13423,-0.81432 -11.06918,-5.59608 -1.93494,-4.78311 -0.1161,-10.03077 4.06337,-11.72214 4.17814,-1.69138 9.13425,0.81298 11.06919,5.59608"
       style="fill:#e56b45;fill-opacity:1;fill-rule:nonzero;stroke:none;stroke-width:1.33468" />
    <path
       id="path71"
       d="m 420.40244,236.11376 c 0,0 3.98998,11.41377 -7.5129,15.21835 -9.36777,3.09707 -13.30571,-3.05701 -14.35991,-5.16623 z"
       style="fill:#ffffff;fill-opacity:1;fill-rule:nonzero;stroke:none;stroke-width:1.33468" />
    <path
       id="path72"
       d="m 529.98697,371.29036 0.2402,0.0801 c -3.71108,11.51922 -7.92791,23.08116 -12.18344,33.98765 v 0.0133 c -13.15892,33.69396 -26.71684,61.18043 -27.12918,61.99476 -12.99879,-17.95498 -37.2042,-29.87603 -45.06406,-33.41496 -1.61601,-0.72087 -2.53544,-1.09332 -2.53544,-1.09332 l -4.95077,14.84457 c 0.41234,0.38713 0.8407,0.77293 1.24103,1.14805 l -44.87724,5.98054 v -18.50231 c 0,0 -1.10759,-2.4029 -2.74895,-6.22083 -2.24319,-5.20628 -5.48455,-13.05574 -8.1948,-20.95861 -2.97447,-8.67712 -5.30973,-17.42101 -5.0295,-22.80082 0.74595,-13.85804 31.09247,-67.29448 31.09247,-67.29448 0.04,7.70262 1.74678,13.92345 1.74678,13.92345 0.13478,-0.82766 0.44036,-1.70872 0.89541,-2.60314 0.13344,0.57404 4.43034,18.30207 12.44899,31.7316 l 17.08218,-29.12846 c 0.70591,1.82888 1.40116,3.87134 2.02835,6.11404 0,0 18.94905,-30.65028 21.91151,-50.47552 0.54712,0.50861 1.1196,1.00121 1.73344,1.46977 11.72973,8.95746 29.01207,3.59099 42.82353,8.78392 12.78261,4.8058 20.71052,18.26203 22.79091,31.77164 2.09641,13.50962 -0.62585,27.24619 -3.32142,40.64902"
       style="fill:#6196f5;fill-opacity:1;fill-rule:nonzero;stroke:none;stroke-width:1.33468" />
    <path
       id="path73"
       d="m 518.04346,405.37185 7.9933,70.28342 h -36.0032 l 2.98914,-5.1916 c -0.65388,-1.0546 -1.36246,-2.08384 -2.10841,-3.09839 0.41234,-0.81298 13.97159,-28.3008 27.12917,-61.99343"
       style="fill:#6196f5;fill-opacity:1;fill-rule:nonzero;stroke:none;stroke-width:1.33468" />
    <path
       id="path74"
       d="m 490.91415,467.36595 c 0.74729,1.01455 1.45454,2.04246 2.10842,3.09706 l -2.98915,5.19293 -15.06584,26.23163 c 0,0 -5.29772,-24.92338 -35.36267,-53.03728 -0.40033,-0.37245 -0.82736,-0.75959 -1.24103,-1.14672 l 4.95077,-14.8459 c 0,0 0.92076,0.37379 2.53544,1.09466 7.85986,3.53759 32.06661,15.45864 45.06406,33.41362"
       style="fill:#3e7ff4;fill-opacity:1;fill-rule:nonzero;stroke:none;stroke-width:1.33468" />
    <path
       id="path75"
       d="m 474.96731,501.88797 c 0,0 -34.4686,0.61407 -130.82854,-4.95264 0,0 -22.51202,15.59214 -31.65294,14.60295 -9.15426,-0.98786 -27.20925,-17.9403 -31.66627,-24.9888 -4.44369,-7.04983 7.17928,-17.56786 7.17928,-17.56786 0,0 0.1201,-5.31306 7.4195,-8.41014 3.25736,-1.37498 12.18344,-1.18809 21.09751,-0.56067 11.10254,0.79963 22.1784,2.29611 22.1784,2.29611 l 26.8089,-3.57766 29.22425,-3.89803 44.87724,-5.98054 c 30.06495,28.1139 35.36267,53.03728 35.36267,53.03728"
       style="fill:#ff9971;fill-opacity:1;fill-rule:nonzero;stroke:none;stroke-width:1.33468" />
    <path
       id="path76"
       d="m 465.95984,288.60346 v 0.0147 c -2.96246,19.82257 -21.91151,50.47286 -21.91151,50.47286 -0.62719,-2.24137 -1.3211,-4.28516 -2.02701,-6.11404 -4.57847,-11.85429 -10.20982,-15.40524 -10.20982,-15.40524 l 30.13168,-33.82745 c 1.16096,1.77547 2.48339,3.41745 4.01666,4.85919"
       style="fill:#ffffff;fill-opacity:1;fill-rule:nonzero;stroke:none;stroke-width:1.33468" />
    <path
       id="path77"
       d="m 442.02065,332.97723 -17.08218,29.12845 c -8.01998,-13.42952 -12.31555,-31.15757 -12.44899,-31.73159 v -0.0133 c 2.68223,-5.41988 10.047,-11.49386 10.047,-11.49386 l 1.57598,19.49016 7.69972,-20.78506 c 0,0 5.63001,3.55095 10.20847,15.40524"
       style="fill:#dae0ea;fill-opacity:1;fill-rule:nonzero;stroke:none;stroke-width:1.33468" />
    <path
       id="path78"
       d="m 424.09829,407.40085 h -16.73388 v 20.03749 h 16.73388 z m -14.3052,-4.09961 h 10.50205 10.31523 l 0.82734,42.66477 h -30.7842 l -0.62852,-42.66477 z"
       style="fill:#ffffff;fill-opacity:1;fill-rule:nonzero;stroke:none;stroke-width:1.33468" />
    <path
       id="path79"
       d="m 424.09829,427.437 h -16.73388 v -20.03749 h 16.73388 z"
       style="fill:#c8cce1;fill-opacity:1;fill-rule:nonzero;stroke:none;stroke-width:1.33468" />
    <path
       id="path80"
       d="m 419.37425,295.11785 3.16263,23.74864 c 0,0 -7.36477,6.07532 -10.047,11.49386 v 0.0133 c -0.45505,0.89442 -0.76063,1.77548 -0.89541,2.60314 0,0 -1.70675,-6.22083 -1.74812,-13.92212 -0.04,-8.18319 1.78815,-18.06311 9.5279,-23.93686"
       style="fill:#ffffff;fill-opacity:1;fill-rule:nonzero;stroke:none;stroke-width:1.33468" />
    <path
       id="path81"
       d="m 415.15862,396.80166 5.1376,6.49984 h -10.50339 z"
       style="fill:#b7b7b7;fill-opacity:1;fill-rule:nonzero;stroke:none;stroke-width:1.33468" />
    <path
       id="path82"
       d="m 394.43436,316.85112 c 7.93993,-18.35547 25.26096,-26.12483 25.26096,-26.12483 l -0.3216,4.39195 c -7.73842,5.87375 -9.5666,15.75367 -9.52657,23.93553 0,0 -30.34518,53.43777 -31.09246,67.29582 -0.28023,5.37848 2.05503,14.12369 5.03083,22.80082 l -1.81483,0.45255 -13.02548,-6.32763 0.41501,-0.84102 c 0,0 16.57376,-58.76419 23.24596,-80.65725 0.52044,-1.72208 1.13294,-3.36406 1.82818,-4.92594"
       style="fill:#6196f5;fill-opacity:1;fill-rule:nonzero;stroke:none;stroke-width:1.33468" />
    <path
       id="path83"
       d="m 394.72753,436.32852 v 18.50231 l -29.22425,3.89803 -88.94313,-0.18422 c -15.05249,6.47448 -22.83628,6.82157 -28.6531,3.92473 -2.37665,0.1602 -11.28404,1.14538 -13.65934,1.29223 -0.22686,2.56309 -1.01417,4.84584 -3.13593,4.84584 -4.81734,0 -10.19513,-10.75964 -10.19513,-10.75964 0,0 -1.48123,10.75964 -6.31191,8.16985 -4.81732,-2.60314 -3.52292,-17.32755 -3.52292,-17.32755 0,0 -10.94241,10.73294 -12.42364,6.68939 -1.48123,-4.05956 5.75144,-23.32279 23.7397,-24.99146 17.98826,-1.66868 58.60863,5.56671 58.60863,5.56671 l 80.56018,-13.48293 30.4119,7.63588 c 1.64136,3.81793 2.74894,6.22083 2.74894,6.22083"
       style="fill:#ff9971;fill-opacity:1;fill-rule:nonzero;stroke:none;stroke-width:1.33468" />
    <path
       id="path84"
       d="m 391.97912,430.10742 -30.41189,-7.63588 c -1.86822,-14.9647 3.09457,-21.27899 3.09457,-21.27899 l 4.28355,2.08252 14.83897,5.87508 c 2.71025,7.90286 5.95161,15.75232 8.1948,20.95727"
       style="fill:#3e7ff4;fill-opacity:1;fill-rule:nonzero;stroke:none;stroke-width:1.33468" />
    <path
       id="path85"
       d="m 330.76166,429.95229 c 1.90825,1.30691 2.42735,3.9234 1.26639,5.92582 -9.40781,-1.21346 -11.64834,-5.49997 -11.64834,-5.49997 0.77397,-1.30691 2.30725,-2.85545 3.8165,-2.93554 1.84153,-0.0801 4.24352,0.92111 6.56545,2.50969"
       style="fill:#ed694f;fill-opacity:1;fill-rule:nonzero;stroke:none;stroke-width:1.33468" />
    <path
       id="path86"
       d="m 332.02844,435.87864 -5.68472,9.81316 c -7.48487,-1.08263 -11.48819,-6.03528 -11.48819,-6.03528 l 5.52458,-9.27784 c 0,0 2.24052,4.2865 11.64833,5.49996"
       style="fill:#ff9076;fill-opacity:1;fill-rule:nonzero;stroke:none;stroke-width:1.33468" />
    <path
       id="path87"
       d="m 326.34399,445.69127 -8.86068,15.29845 -15.13123,-0.32039 12.50372,-21.01334 c 0,0 4.00332,4.95265 11.48819,6.03528"
       style="fill:#6196f5;fill-opacity:1;fill-rule:nonzero;stroke:none;stroke-width:1.33468" />
    <path
       id="path88"
       d="m 472.14337,340.32729 c -3.6617,11.53792 -7.32341,23.0745 -10.98645,34.61241 -3.64569,11.48318 -7.29138,22.96769 -10.93707,34.4522 -2.06705,6.50919 -4.13276,13.01837 -6.19847,19.52755 -0.26156,0.82099 1.02618,1.17208 1.28639,0.35643 3.66304,-11.53791 7.32475,-23.07449 10.98645,-34.6124 3.64569,-11.48318 7.29139,-22.96769 10.93708,-34.45221 2.06571,-6.50918 4.13276,-13.01837 6.19981,-19.52755 0.26022,-0.82232 -1.02885,-1.17208 -1.28774,-0.35643"
       style="fill:#2e303d;fill-opacity:1;fill-rule:nonzero;stroke:none;stroke-width:1.33468" />
    <path
       id="path89"
       d="m 517.38144,407.26868 c -7.6717,15.26374 -14.72155,30.83718 -21.12419,46.67495 -1.80684,4.46805 -3.55895,8.95613 -5.26171,13.4629 -0.30425,0.80363 0.98482,1.15205 1.28507,0.35376 5.99965,-15.87114 12.63716,-31.49932 19.90719,-46.83114 2.06571,-4.35191 4.1808,-8.68247 6.34526,-12.98633 0.38432,-0.76492 -0.76596,-1.44173 -1.15162,-0.67414"
       style="fill:#2e303d;fill-opacity:1;fill-rule:nonzero;stroke:none;stroke-width:1.33468" />
    <path
       id="path90"
       d="m 408.02897,320.60164 c -6.3466,11.76886 -12.84666,23.47097 -19.00643,35.33861 -5.55928,10.70491 -10.46736,22.19343 -10.42465,34.46956 0.024,6.38237 1.41183,12.76607 4.57846,18.34345 0.42302,0.7489 1.57731,0.0761 1.15162,-0.67281 -5.75944,-10.14689 -5.23901,-22.51248 -1.92026,-33.36556 1.78949,-5.85373 4.35028,-11.43246 7.13392,-16.87368 2.90641,-5.68152 6.00232,-11.27226 9.03149,-16.89103 3.53494,-6.55724 7.07254,-13.11582 10.60748,-19.6744 0.40834,-0.75691 -0.74329,-1.42972 -1.15163,-0.67414"
       style="fill:#2e303d;fill-opacity:1;fill-rule:nonzero;stroke:none;stroke-width:1.33468" />
    <path
       id="path91"
       d="m 441.95552,334.53644 c -7.20864,16.31434 -14.41996,32.62867 -21.62995,48.94435 -1.75611,3.97546 -3.51224,7.94958 -5.26837,11.92505 -2.7009,-16.26094 -3.8552,-32.77019 -3.40682,-49.24738 0.13345,-4.89123 0.40833,-9.77712 0.81667,-14.65367 0.0721,-0.85436 -1.26237,-0.85036 -1.33443,0 -1.45321,17.33823 -1.1663,34.81264 0.88473,52.08948 0.56047,4.72836 1.25571,9.43938 2.07105,14.13036 -0.007,0.12282 0.0253,0.23496 0.0774,0.33774 0.0721,0.21626 0.22419,0.33507 0.40567,0.36844 0.26955,0.10547 0.57381,0.0534 0.72727,-0.29101 0.004,-0.0107 0.009,-0.0227 0.0147,-0.0333 0.0413,-0.0654 0.0774,-0.13482 0.0934,-0.21492 7.17396,-16.23157 14.34791,-32.46448 21.52052,-48.69738 2.06038,-4.66163 4.12076,-9.32325 6.1798,-13.98354 0.34428,-0.7796 -0.80467,-1.45908 -1.15163,-0.67414"
       style="fill:#2e303d;fill-opacity:1;fill-rule:nonzero;stroke:none;stroke-width:1.33468" />
    <path
       id="path92"
       d="m 393.78542,455.14935 c -9.45985,0.92778 -18.9197,1.85556 -28.37821,2.78335 -0.84604,0.0828 -0.85538,1.41771 0,1.33494 9.45851,-0.92778 18.91836,-1.85557 28.37821,-2.78335 0.84737,-0.0828 0.85671,-1.41771 0,-1.33494"
       style="fill:#2e303d;fill-opacity:1;fill-rule:nonzero;stroke:none;stroke-width:1.33468" />
    <path
       id="path93"
       d="m 261.83019,457.62753 c -7.95726,2.52171 -16.17608,4.19706 -24.49098,4.93528 -0.95279,0.0854 -1.90826,0.15753 -2.86372,0.21894 -0.80066,0.0508 -1.63201,0.1455 -2.42601,-0.0187 -0.60851,-0.12682 -1.28773,-0.41784 -1.24637,-1.15205 0.0521,-0.91044 1.21034,-1.76213 1.80951,-2.33216 2.73694,-2.59378 5.6727,-4.97265 8.77795,-7.11257 3.51224,-2.41758 7.234,-4.52278 11.10654,-6.3036 0.77932,-0.35776 0.10276,-1.50848 -0.67388,-1.15339 -7.5356,3.46685 -14.48269,8.18186 -20.46899,13.92746 -1.12227,1.07597 -2.59149,2.67389 -1.5146,4.29451 0.77131,1.16274 2.41935,1.29356 3.6804,1.2415 4.51307,-0.18689 9.04083,-0.77026 13.48719,-1.54319 5.13759,-0.89175 10.20713,-2.13858 15.17792,-3.71381 0.81535,-0.25899 0.46706,-1.54721 -0.35496,-1.28823"
       style="fill:#2e303d;fill-opacity:1;fill-rule:nonzero;stroke:none;stroke-width:1.33468" />
    <path
       id="path94"
       d="m 221.59427,457.67973 c -1.75478,-5.89511 -1.7788,-12.16801 -0.064,-18.07513 0.2402,-0.82633 -1.04753,-1.18009 -1.2864,-0.3551 -1.7788,6.12606 -1.75746,12.67261 0.0641,18.78532 0.2442,0.82099 1.53194,0.47123 1.28639,-0.35509"
       style="fill:#2e303d;fill-opacity:1;fill-rule:nonzero;stroke:none;stroke-width:1.33468" />
    <path
       id="path95"
       d="m 216.57198,437.44707 c -0.34029,-0.20425 -0.69524,-0.0453 -0.91276,0.24029 -2.48472,3.24524 -4.17947,7.06585 -4.92675,11.08537 -0.15613,0.83968 1.12894,1.20011 1.2864,0.35509 0.72993,-3.92473 2.36729,-7.59716 4.79197,-10.76765 0.22152,-0.28835 0.0427,-0.7449 -0.23886,-0.9131"
       style="fill:#2e303d;fill-opacity:1;fill-rule:nonzero;stroke:none;stroke-width:1.33468" />
    <path
       id="path96"
       d="m 421.99496,318.82484 c -3.8552,3.81793 -7.4742,7.86681 -10.83699,12.12395 -0.52844,0.66614 0.41101,1.61795 0.94345,0.9438 3.36279,-4.25713 6.98179,-8.30601 10.83699,-12.12395 0.61118,-0.60472 -0.33227,-1.54853 -0.94345,-0.9438"
       style="fill:#2e303d;fill-opacity:1;fill-rule:nonzero;stroke:none;stroke-width:1.33468" />
    <path
       id="path97"
       d="m 444.25556,337.72002 c -2.26321,-7.62119 -6.19847,-14.66301 -11.48953,-20.59283 -0.57381,-0.6421 -1.51459,0.3057 -0.94345,0.94381 5.13627,5.75627 8.95009,12.6072 11.14525,20.00412 0.2442,0.82099 1.53327,0.47123 1.28773,-0.3551"
       style="fill:#2e303d;fill-opacity:1;fill-rule:nonzero;stroke:none;stroke-width:1.33468" />
    <path
       id="path98"
       d="m 425.176,339.46946 c -0.036,-0.8557 -1.37047,-0.86104 -1.33444,0 0.25221,5.91781 0.50575,11.8356 0.7593,17.75341 0.0373,0.85436 1.3718,0.8597 1.33444,0 -0.25354,-5.91781 -0.50709,-11.8356 -0.7593,-17.75341"
       style="fill:#2e303d;fill-opacity:1;fill-rule:nonzero;stroke:none;stroke-width:1.33468" />
    <path
       id="path99"
       d="m 430.00548,342.87464 c -0.36831,-0.75825 -1.36246,-1.17475 -2.15379,-0.86505 -0.23886,0.0934 -0.45238,0.23762 -0.64053,0.41117 -0.0227,0.0187 -0.0521,0.0267 -0.0708,0.0494 -0.0413,0.044 -0.0573,0.10012 -0.0921,0.14818 -0.0627,0.0774 -0.14279,0.13883 -0.18949,0.2296 -0.0253,0.0481 -0.0267,0.1028 -0.0467,0.15353 -0.0173,0.0427 -0.0253,0.0894 -0.0413,0.13349 -0.0533,0.1642 -0.0894,0.32706 -0.0948,0.49927 0,0.02 -0.0107,0.0374 -0.0107,0.0548 0,0.0481 0.0227,0.0921 0.0267,0.13883 0.008,0.10947 -0.004,0.21894 0.0253,0.32707 0.012,0.0414 0.0413,0.0761 0.0573,0.11614 0.028,0.0788 0.0708,0.14818 0.10808,0.22293 0.0614,0.12014 0.12278,0.23362 0.20952,0.33507 0.0187,0.0213 0.0267,0.0521 0.0467,0.0748 0.0467,0.0494 0.11076,0.0761 0.1628,0.11881 0.0668,0.0574 0.11877,0.13215 0.19216,0.17755 0.0307,0.02 0.0694,0.02 0.0988,0.0373 0.0868,0.0441 0.17881,0.0641 0.27223,0.0961 0.11075,0.036 0.21218,0.0841 0.3296,0.0974 0.42168,0.0614 0.86072,-0.0147 1.20633,-0.26165 0.35364,-0.25497 0.61385,-0.60072 0.73128,-1.0239 0.12143,-0.42985 0.0681,-0.87171 -0.12677,-1.27086"
       style="fill:#2e303d;fill-opacity:1;fill-rule:nonzero;stroke:none;stroke-width:1.33468" />
    <path
       id="path100"
       d="m 89.661196,461.03792 -3.963288,32.6794 68.256642,-4.20507 v 13.61642 l -99.415827,11.13342 -26.9557,-20.54477 30.74551,-72.79444 11.049173,-26.16354 27.449436,7.18066 -3.442856,28.44763 z"
       style="fill:#8e8e8e;fill-opacity:1;fill-rule:nonzero;stroke:none;stroke-width:1.33468" />
    <path
       id="path101"
       d="M 126.13159,214.03368 172.2632,454.51031 H 152.47345 L 106.10164,214.03368 Z"
       style="fill:#8e8e8e;fill-opacity:1;fill-rule:nonzero;stroke:none;stroke-width:1.33468" />
    <path
       id="path102"
       d="m 153.95482,489.51238 -68.256642,4.20507 3.963288,-32.6794 z"
       style="fill:#b7b7b7;fill-opacity:1;fill-rule:nonzero;stroke:none;stroke-width:1.33468" />
    <path
       id="path103"
       d="m 106.10137,214.03368 46.37181,240.47663 -59.089025,-24.12242 3.442857,-28.44763 -27.449447,-7.182 L 58.328397,420.92315 53.431,418.84063 0,214.03368 Z"
       style="fill:#b7b7b7;fill-opacity:1;fill-rule:nonzero;stroke:none;stroke-width:1.33468" />
    <path
       id="path104"
       d="m 142.73591,401.07507 c -2.55812,-15.05415 -5.1843,-30.09896 -7.8772,-45.13175 -2.70624,-15.10754 -5.48055,-30.20308 -8.3229,-45.28527 -2.82769,-15.00743 -5.72209,-30.00284 -8.68321,-44.9849 -2.96246,-14.98074 -5.99031,-29.94946 -9.08621,-44.90349 -0.38699,-1.87024 -0.77397,-3.73917 -1.16363,-5.60809 -0.17481,-0.83967 -1.46122,-0.48458 -1.2864,0.3551 3.11191,14.95136 6.15711,29.91607 9.13558,44.89413 2.97847,14.97939 5.88889,29.9708 8.73392,44.97423 2.85837,15.07951 5.65001,30.17238 8.3736,45.27592 2.70892,15.03013 5.35111,30.07227 7.92658,45.12374 2.57681,15.05282 5.08422,30.11765 7.52492,45.19317 0.30558,1.88493 0.60983,3.76854 0.91275,5.65347 0.13612,0.84637 1.42251,0.48726 1.2864,-0.35508 -2.42467,-15.07818 -4.91608,-30.14569 -7.4742,-45.20118"
       style="fill:#2e303d;fill-opacity:1;fill-rule:nonzero;stroke:none;stroke-width:1.33468" />
    <path
       id="path105"
       d="m 88.585504,401.3697 c -4.059369,14.47612 -8.282873,28.90685 -12.670514,43.28686 -4.371627,14.32661 -8.907391,28.60516 -13.60595,42.83031 -2.658209,8.0457 -5.368458,16.07538 -8.128081,24.08771 -0.281567,0.81298 1.007503,1.16273 1.2864,0.35376 4.897398,-14.21447 9.634659,-28.48501 14.207793,-42.80628 4.555781,-14.27054 8.948756,-28.59314 13.177595,-42.96514 2.392655,-8.12846 4.731926,-16.27296 7.019164,-24.43212 0.232193,-0.829 -1.054215,-1.18277 -1.286407,-0.3551"
       style="fill:#2e303d;fill-opacity:1;fill-rule:nonzero;stroke:none;stroke-width:1.33468" />
  </g>
</svg>
