<?xml version="1.0" encoding="UTF-8" standalone="no"?>
<!-- Created with Inkscape (http://www.inkscape.org/) -->

<svg
   width="600pt"
   height="840pt"
   viewBox="0 0 600 840"
   version="1.1"
   id="svg1"
   xml:space="preserve"
   inkscape:version="1.4.3 (0d15f75, 2025-12-25)"
   sodipodi:docname="MentorMap.svg"
   inkscape:export-filename="MentorMap.svg"
   inkscape:export-xdpi="9.000001"
   inkscape:export-ydpi="9.000001"
   xmlns:inkscape="http://www.inkscape.org/namespaces/inkscape"
   xmlns:sodipodi="http://sodipodi.sourceforge.net/DTD/sodipodi-0.dtd"
   xmlns="http://www.w3.org/2000/svg"
   xmlns:svg="http://www.w3.org/2000/svg"><sodipodi:namedview
     id="namedview1"
     pagecolor="#ffffff"
     bordercolor="#000000"
     borderopacity="0.25"
     inkscape:showpageshadow="true"
     inkscape:pageopacity="0.0"
     inkscape:pagecheckerboard="0"
     inkscape:deskcolor="#d1d1d1"
     inkscape:document-units="pt"
     showguides="true"
     inkscape:zoom="0.25"
     inkscape:cx="192"
     inkscape:cy="938"
     inkscape:window-width="1920"
     inkscape:window-height="1094"
     inkscape:window-x="1909"
     inkscape:window-y="-11"
     inkscape:window-maximized="1"
     inkscape:current-layer="layer2"
     showgrid="true"
     inkscape:export-bgcolor="#ffffff00"
     labelstyle="default"><inkscape:page
       x="0"
       y="0"
       width="600"
       height="840"
       id="page1"
       margin="0"
       bleed="0" /></sodipodi:namedview><defs
     id="defs1" /><g
     inkscape:groupmode="layer"
     id="layer2"
     inkscape:label="Try 3"
     style="display:inline"><path
       id="rect85"
       style="display:inline;opacity:1;fill:#2eb830;fill-opacity:1;stroke-width:0.534183"
       inkscape:label="RLeg"
       d="M 529.70569,526.37773 409.70557,646.37827 V 779.9997 c 0,33.24 26.7603,60.0003 60.00029,60.0003 33.23999,0 59.99983,-26.7603 59.99983,-60.0003 z" /><path
       id="rect83"
       style="display:inline;opacity:1;fill:#2eb830;fill-opacity:1;stroke-width:0.534183"
       inkscape:label="LLeg"
       d="M 70.294028,526.37728 V 779.9997 c 0,33.24 26.759849,60.0003 59.999832,60.0003 33.24,0 60.00029,-26.7603 60.00029,-60.0003 V 646.37782 Z" /><path
       id="rect74"
       style="display:inline;opacity:1;fill:#2eb830;fill-opacity:1;stroke-width:0.244401"
       d="m 130.2943,409.70512 c -33.137133,-1.5e-4 -60.000191,26.86271 -60.000272,59.99984 0.0021,15.91226 6.321097,31.17584 17.573849,42.42642 70.696143,70.70377 141.424113,141.42421 212.132193,212.13235 L 512.13196,512.13185 c 11.25239,-11.25231 17.57385,-26.51379 17.57373,-42.427 -9e-5,-33.13698 -26.86287,-59.99977 -59.99985,-59.99984 -15.91081,0.006 -31.17909,6.32036 -42.42654,17.57419 -42.42608,42.42673 -84.85272,84.8529 -127.27923,127.27921 C 257.53027,512.1805 215.20651,469.61892 172.72046,427.27881 161.47088,416.02609 146.20597,409.7085 130.2943,409.70512 Z"
       sodipodi:nodetypes="ccccccccccc"
       inkscape:label="UpperM" /><path
       id="circle80"
       style="display:inline;opacity:1;fill:#0000ff;fill-opacity:1;stroke-width:0.239208"
       inkscape:label="UpperRing"
       d="M 300.00007,0 A 299.99996,299.99996 0 0 0 0,300.00007 299.99996,299.99996 0 0 0 48.075721,462.89302 82.500053,82.500053 0 0 1 130.2943,387.20513 a 82.500053,82.500053 0 0 1 12.79776,0.99843 179.99996,179.99996 0 0 1 -23.09195,-88.20349 179.99996,179.99996 0 0 1 179.99996,-179.99996 179.99996,179.99996 0 0 1 179.99997,179.99996 179.99996,179.99996 0 0 1 -23.09196,88.20349 82.500053,82.500053 0 0 1 12.79776,-0.99843 82.500053,82.500053 0 0 1 82.21815,75.68789 A 299.99996,299.99996 0 0 0 599.99971,300.00007 299.99996,299.99996 0 0 0 300.00007,0 Z" /></g></svg>
